<?xml version="1.0" encoding="utf-8" standalone="no"?>
<!DOCTYPE svg PUBLIC "-//W3C//DTD SVG 1.1//EN"
  "http://www.w3.org/Graphics/SVG/1.1/DTD/svg11.dtd">
<svg height="345.6pt" version="1.1" viewBox="0 0 460.8 345.6" width="460.8pt" xmlns="http://www.w3.org/2000/svg" xmlns:xlink="http://www.w3.org/1999/xlink">
 <metadata>
  <rdf:RDF xmlns:cc="http://creativecommons.org/ns#" xmlns:dc="http://purl.org/dc/elements/1.1/" xmlns:rdf="http://www.w3.org/1999/02/22-rdf-syntax-ns#">
   <cc:Work>
    <dc:type rdf:resource="http://purl.org/dc/dcmitype/StillImage"/>
    <dc:date>2022-09-18T16:06:32.269762</dc:date>
    <dc:format>image/svg+xml</dc:format>
    <dc:creator>
     <cc:Agent>
      <dc:title>Matplotlib v3.4.1, https://matplotlib.org/</dc:title>
     </cc:Agent>
    </dc:creator>
   </cc:Work>
  </rdf:RDF>
 </metadata>
 <defs>
  <style type="text/css">*{stroke-linecap:butt;stroke-linejoin:round;}</style>
 </defs>
 <g id="figure_1">
  <g id="patch_1">
   <path d="M 0 345.6 
L 460.8 345.6 
L 460.8 0 
L 0 0 
z
" style="fill:#ffffff;"/>
  </g>
  <g id="axes_1">
   <g id="patch_2">
    <path d="M 57.6 307.584 
L 414.72 307.584 
L 414.72 41.472 
L 57.6 41.472 
z
" style="fill:#ffffff;"/>
   </g>
   <g id="matplotlib.axis_1">
    <g id="xtick_1">
     <g id="line2d_1">
      <path clip-path="url(#p1e991c1a55)" d="M 73.832727 307.584 
L 73.832727 41.472 
" style="fill:none;stroke:#b0b0b0;stroke-linecap:square;stroke-width:0.8;"/>
     </g>
     <g id="line2d_2">
      <defs>
       <path d="M 0 0 
L 0 3.5 
" id="m8f49a75fed" style="stroke:#000000;stroke-width:0.8;"/>
      </defs>
      <g>
       <use style="stroke:#000000;stroke-width:0.8;" x="73.832727" xlink:href="#m8f49a75fed" y="307.584"/>
      </g>
     </g>
     <g id="text_1">
      <!-- 0 -->
      <g transform="translate(70.651477 322.182437)scale(0.1 -0.1)">
       <defs>
        <path d="M 2034 4250 
Q 1547 4250 1301 3770 
Q 1056 3291 1056 2328 
Q 1056 1369 1301 889 
Q 1547 409 2034 409 
Q 2525 409 2770 889 
Q 3016 1369 3016 2328 
Q 3016 3291 2770 3770 
Q 2525 4250 2034 4250 
z
M 2034 4750 
Q 2819 4750 3233 4129 
Q 3647 3509 3647 2328 
Q 3647 1150 3233 529 
Q 2819 -91 2034 -91 
Q 1250 -91 836 529 
Q 422 1150 422 2328 
Q 422 3509 836 4129 
Q 1250 4750 2034 4750 
z
" id="DejaVuSans-30" transform="scale(0.015625)"/>
       </defs>
       <use xlink:href="#DejaVuSans-30"/>
      </g>
     </g>
    </g>
    <g id="xtick_2">
     <g id="line2d_3">
      <path clip-path="url(#p1e991c1a55)" d="M 138.893758 307.584 
L 138.893758 41.472 
" style="fill:none;stroke:#b0b0b0;stroke-linecap:square;stroke-width:0.8;"/>
     </g>
     <g id="line2d_4">
      <g>
       <use style="stroke:#000000;stroke-width:0.8;" x="138.893758" xlink:href="#m8f49a75fed" y="307.584"/>
      </g>
     </g>
     <g id="text_2">
      <!-- 100 -->
      <g transform="translate(129.350008 322.182437)scale(0.1 -0.1)">
       <defs>
        <path d="M 794 531 
L 1825 531 
L 1825 4091 
L 703 3866 
L 703 4441 
L 1819 4666 
L 2450 4666 
L 2450 531 
L 3481 531 
L 3481 0 
L 794 0 
L 794 531 
z
" id="DejaVuSans-31" transform="scale(0.015625)"/>
       </defs>
       <use xlink:href="#DejaVuSans-31"/>
       <use x="63.623047" xlink:href="#DejaVuSans-30"/>
       <use x="127.246094" xlink:href="#DejaVuSans-30"/>
      </g>
     </g>
    </g>
    <g id="xtick_3">
     <g id="line2d_5">
      <path clip-path="url(#p1e991c1a55)" d="M 203.95479 307.584 
L 203.95479 41.472 
" style="fill:none;stroke:#b0b0b0;stroke-linecap:square;stroke-width:0.8;"/>
     </g>
     <g id="line2d_6">
      <g>
       <use style="stroke:#000000;stroke-width:0.8;" x="203.95479" xlink:href="#m8f49a75fed" y="307.584"/>
      </g>
     </g>
     <g id="text_3">
      <!-- 200 -->
      <g transform="translate(194.41104 322.182437)scale(0.1 -0.1)">
       <defs>
        <path d="M 1228 531 
L 3431 531 
L 3431 0 
L 469 0 
L 469 531 
Q 828 903 1448 1529 
Q 2069 2156 2228 2338 
Q 2531 2678 2651 2914 
Q 2772 3150 2772 3378 
Q 2772 3750 2511 3984 
Q 2250 4219 1831 4219 
Q 1534 4219 1204 4116 
Q 875 4013 500 3803 
L 500 4441 
Q 881 4594 1212 4672 
Q 1544 4750 1819 4750 
Q 2544 4750 2975 4387 
Q 3406 4025 3406 3419 
Q 3406 3131 3298 2873 
Q 3191 2616 2906 2266 
Q 2828 2175 2409 1742 
Q 1991 1309 1228 531 
z
" id="DejaVuSans-32" transform="scale(0.015625)"/>
       </defs>
       <use xlink:href="#DejaVuSans-32"/>
       <use x="63.623047" xlink:href="#DejaVuSans-30"/>
       <use x="127.246094" xlink:href="#DejaVuSans-30"/>
      </g>
     </g>
    </g>
    <g id="xtick_4">
     <g id="line2d_7">
      <path clip-path="url(#p1e991c1a55)" d="M 269.015821 307.584 
L 269.015821 41.472 
" style="fill:none;stroke:#b0b0b0;stroke-linecap:square;stroke-width:0.8;"/>
     </g>
     <g id="line2d_8">
      <g>
       <use style="stroke:#000000;stroke-width:0.8;" x="269.015821" xlink:href="#m8f49a75fed" y="307.584"/>
      </g>
     </g>
     <g id="text_4">
      <!-- 300 -->
      <g transform="translate(259.472071 322.182437)scale(0.1 -0.1)">
       <defs>
        <path d="M 2597 2516 
Q 3050 2419 3304 2112 
Q 3559 1806 3559 1356 
Q 3559 666 3084 287 
Q 2609 -91 1734 -91 
Q 1441 -91 1130 -33 
Q 819 25 488 141 
L 488 750 
Q 750 597 1062 519 
Q 1375 441 1716 441 
Q 2309 441 2620 675 
Q 2931 909 2931 1356 
Q 2931 1769 2642 2001 
Q 2353 2234 1838 2234 
L 1294 2234 
L 1294 2753 
L 1863 2753 
Q 2328 2753 2575 2939 
Q 2822 3125 2822 3475 
Q 2822 3834 2567 4026 
Q 2313 4219 1838 4219 
Q 1578 4219 1281 4162 
Q 984 4106 628 3988 
L 628 4550 
Q 988 4650 1302 4700 
Q 1616 4750 1894 4750 
Q 2613 4750 3031 4423 
Q 3450 4097 3450 3541 
Q 3450 3153 3228 2886 
Q 3006 2619 2597 2516 
z
" id="DejaVuSans-33" transform="scale(0.015625)"/>
       </defs>
       <use xlink:href="#DejaVuSans-33"/>
       <use x="63.623047" xlink:href="#DejaVuSans-30"/>
       <use x="127.246094" xlink:href="#DejaVuSans-30"/>
      </g>
     </g>
    </g>
    <g id="xtick_5">
     <g id="line2d_9">
      <path clip-path="url(#p1e991c1a55)" d="M 334.076852 307.584 
L 334.076852 41.472 
" style="fill:none;stroke:#b0b0b0;stroke-linecap:square;stroke-width:0.8;"/>
     </g>
     <g id="line2d_10">
      <g>
       <use style="stroke:#000000;stroke-width:0.8;" x="334.076852" xlink:href="#m8f49a75fed" y="307.584"/>
      </g>
     </g>
     <g id="text_5">
      <!-- 400 -->
      <g transform="translate(324.533102 322.182437)scale(0.1 -0.1)">
       <defs>
        <path d="M 2419 4116 
L 825 1625 
L 2419 1625 
L 2419 4116 
z
M 2253 4666 
L 3047 4666 
L 3047 1625 
L 3713 1625 
L 3713 1100 
L 3047 1100 
L 3047 0 
L 2419 0 
L 2419 1100 
L 313 1100 
L 313 1709 
L 2253 4666 
z
" id="DejaVuSans-34" transform="scale(0.015625)"/>
       </defs>
       <use xlink:href="#DejaVuSans-34"/>
       <use x="63.623047" xlink:href="#DejaVuSans-30"/>
       <use x="127.246094" xlink:href="#DejaVuSans-30"/>
      </g>
     </g>
    </g>
    <g id="xtick_6">
     <g id="line2d_11">
      <path clip-path="url(#p1e991c1a55)" d="M 399.137883 307.584 
L 399.137883 41.472 
" style="fill:none;stroke:#b0b0b0;stroke-linecap:square;stroke-width:0.8;"/>
     </g>
     <g id="line2d_12">
      <g>
       <use style="stroke:#000000;stroke-width:0.8;" x="399.137883" xlink:href="#m8f49a75fed" y="307.584"/>
      </g>
     </g>
     <g id="text_6">
      <!-- 500 -->
      <g transform="translate(389.594133 322.182437)scale(0.1 -0.1)">
       <defs>
        <path d="M 691 4666 
L 3169 4666 
L 3169 4134 
L 1269 4134 
L 1269 2991 
Q 1406 3038 1543 3061 
Q 1681 3084 1819 3084 
Q 2600 3084 3056 2656 
Q 3513 2228 3513 1497 
Q 3513 744 3044 326 
Q 2575 -91 1722 -91 
Q 1428 -91 1123 -41 
Q 819 9 494 109 
L 494 744 
Q 775 591 1075 516 
Q 1375 441 1709 441 
Q 2250 441 2565 725 
Q 2881 1009 2881 1497 
Q 2881 1984 2565 2268 
Q 2250 2553 1709 2553 
Q 1456 2553 1204 2497 
Q 953 2441 691 2322 
L 691 4666 
z
" id="DejaVuSans-35" transform="scale(0.015625)"/>
       </defs>
       <use xlink:href="#DejaVuSans-35"/>
       <use x="63.623047" xlink:href="#DejaVuSans-30"/>
       <use x="127.246094" xlink:href="#DejaVuSans-30"/>
      </g>
     </g>
    </g>
    <g id="text_7">
     <!-- Generations -->
     <g transform="translate(205.662344 335.860562)scale(0.1 -0.1)">
      <defs>
       <path d="M 3809 666 
L 3809 1919 
L 2778 1919 
L 2778 2438 
L 4434 2438 
L 4434 434 
Q 4069 175 3628 42 
Q 3188 -91 2688 -91 
Q 1594 -91 976 548 
Q 359 1188 359 2328 
Q 359 3472 976 4111 
Q 1594 4750 2688 4750 
Q 3144 4750 3555 4637 
Q 3966 4525 4313 4306 
L 4313 3634 
Q 3963 3931 3569 4081 
Q 3175 4231 2741 4231 
Q 1884 4231 1454 3753 
Q 1025 3275 1025 2328 
Q 1025 1384 1454 906 
Q 1884 428 2741 428 
Q 3075 428 3337 486 
Q 3600 544 3809 666 
z
" id="DejaVuSans-47" transform="scale(0.015625)"/>
       <path d="M 3597 1894 
L 3597 1613 
L 953 1613 
Q 991 1019 1311 708 
Q 1631 397 2203 397 
Q 2534 397 2845 478 
Q 3156 559 3463 722 
L 3463 178 
Q 3153 47 2828 -22 
Q 2503 -91 2169 -91 
Q 1331 -91 842 396 
Q 353 884 353 1716 
Q 353 2575 817 3079 
Q 1281 3584 2069 3584 
Q 2775 3584 3186 3129 
Q 3597 2675 3597 1894 
z
M 3022 2063 
Q 3016 2534 2758 2815 
Q 2500 3097 2075 3097 
Q 1594 3097 1305 2825 
Q 1016 2553 972 2059 
L 3022 2063 
z
" id="DejaVuSans-65" transform="scale(0.015625)"/>
       <path d="M 3513 2113 
L 3513 0 
L 2938 0 
L 2938 2094 
Q 2938 2591 2744 2837 
Q 2550 3084 2163 3084 
Q 1697 3084 1428 2787 
Q 1159 2491 1159 1978 
L 1159 0 
L 581 0 
L 581 3500 
L 1159 3500 
L 1159 2956 
Q 1366 3272 1645 3428 
Q 1925 3584 2291 3584 
Q 2894 3584 3203 3211 
Q 3513 2838 3513 2113 
z
" id="DejaVuSans-6e" transform="scale(0.015625)"/>
       <path d="M 2631 2963 
Q 2534 3019 2420 3045 
Q 2306 3072 2169 3072 
Q 1681 3072 1420 2755 
Q 1159 2438 1159 1844 
L 1159 0 
L 581 0 
L 581 3500 
L 1159 3500 
L 1159 2956 
Q 1341 3275 1631 3429 
Q 1922 3584 2338 3584 
Q 2397 3584 2469 3576 
Q 2541 3569 2628 3553 
L 2631 2963 
z
" id="DejaVuSans-72" transform="scale(0.015625)"/>
       <path d="M 2194 1759 
Q 1497 1759 1228 1600 
Q 959 1441 959 1056 
Q 959 750 1161 570 
Q 1363 391 1709 391 
Q 2188 391 2477 730 
Q 2766 1069 2766 1631 
L 2766 1759 
L 2194 1759 
z
M 3341 1997 
L 3341 0 
L 2766 0 
L 2766 531 
Q 2569 213 2275 61 
Q 1981 -91 1556 -91 
Q 1019 -91 701 211 
Q 384 513 384 1019 
Q 384 1609 779 1909 
Q 1175 2209 1959 2209 
L 2766 2209 
L 2766 2266 
Q 2766 2663 2505 2880 
Q 2244 3097 1772 3097 
Q 1472 3097 1187 3025 
Q 903 2953 641 2809 
L 641 3341 
Q 956 3463 1253 3523 
Q 1550 3584 1831 3584 
Q 2591 3584 2966 3190 
Q 3341 2797 3341 1997 
z
" id="DejaVuSans-61" transform="scale(0.015625)"/>
       <path d="M 1172 4494 
L 1172 3500 
L 2356 3500 
L 2356 3053 
L 1172 3053 
L 1172 1153 
Q 1172 725 1289 603 
Q 1406 481 1766 481 
L 2356 481 
L 2356 0 
L 1766 0 
Q 1100 0 847 248 
Q 594 497 594 1153 
L 594 3053 
L 172 3053 
L 172 3500 
L 594 3500 
L 594 4494 
L 1172 4494 
z
" id="DejaVuSans-74" transform="scale(0.015625)"/>
       <path d="M 603 3500 
L 1178 3500 
L 1178 0 
L 603 0 
L 603 3500 
z
M 603 4863 
L 1178 4863 
L 1178 4134 
L 603 4134 
L 603 4863 
z
" id="DejaVuSans-69" transform="scale(0.015625)"/>
       <path d="M 1959 3097 
Q 1497 3097 1228 2736 
Q 959 2375 959 1747 
Q 959 1119 1226 758 
Q 1494 397 1959 397 
Q 2419 397 2687 759 
Q 2956 1122 2956 1747 
Q 2956 2369 2687 2733 
Q 2419 3097 1959 3097 
z
M 1959 3584 
Q 2709 3584 3137 3096 
Q 3566 2609 3566 1747 
Q 3566 888 3137 398 
Q 2709 -91 1959 -91 
Q 1206 -91 779 398 
Q 353 888 353 1747 
Q 353 2609 779 3096 
Q 1206 3584 1959 3584 
z
" id="DejaVuSans-6f" transform="scale(0.015625)"/>
       <path d="M 2834 3397 
L 2834 2853 
Q 2591 2978 2328 3040 
Q 2066 3103 1784 3103 
Q 1356 3103 1142 2972 
Q 928 2841 928 2578 
Q 928 2378 1081 2264 
Q 1234 2150 1697 2047 
L 1894 2003 
Q 2506 1872 2764 1633 
Q 3022 1394 3022 966 
Q 3022 478 2636 193 
Q 2250 -91 1575 -91 
Q 1294 -91 989 -36 
Q 684 19 347 128 
L 347 722 
Q 666 556 975 473 
Q 1284 391 1588 391 
Q 1994 391 2212 530 
Q 2431 669 2431 922 
Q 2431 1156 2273 1281 
Q 2116 1406 1581 1522 
L 1381 1569 
Q 847 1681 609 1914 
Q 372 2147 372 2553 
Q 372 3047 722 3315 
Q 1072 3584 1716 3584 
Q 2034 3584 2315 3537 
Q 2597 3491 2834 3397 
z
" id="DejaVuSans-73" transform="scale(0.015625)"/>
      </defs>
      <use xlink:href="#DejaVuSans-47"/>
      <use x="77.490234" xlink:href="#DejaVuSans-65"/>
      <use x="139.013672" xlink:href="#DejaVuSans-6e"/>
      <use x="202.392578" xlink:href="#DejaVuSans-65"/>
      <use x="263.916016" xlink:href="#DejaVuSans-72"/>
      <use x="305.029297" xlink:href="#DejaVuSans-61"/>
      <use x="366.308594" xlink:href="#DejaVuSans-74"/>
      <use x="405.517578" xlink:href="#DejaVuSans-69"/>
      <use x="433.300781" xlink:href="#DejaVuSans-6f"/>
      <use x="494.482422" xlink:href="#DejaVuSans-6e"/>
      <use x="557.861328" xlink:href="#DejaVuSans-73"/>
     </g>
    </g>
   </g>
   <g id="matplotlib.axis_2">
    <g id="ytick_1">
     <g id="line2d_13">
      <path clip-path="url(#p1e991c1a55)" d="M 57.6 276.108868 
L 414.72 276.108868 
" style="fill:none;stroke:#b0b0b0;stroke-linecap:square;stroke-width:0.8;"/>
     </g>
     <g id="line2d_14">
      <defs>
       <path d="M 0 0 
L -3.5 0 
" id="me750eb1ef9" style="stroke:#000000;stroke-width:0.8;"/>
      </defs>
      <g>
       <use style="stroke:#000000;stroke-width:0.8;" x="57.6" xlink:href="#me750eb1ef9" y="276.108868"/>
      </g>
     </g>
     <g id="text_8">
      <!-- 40 -->
      <g transform="translate(37.875 279.908086)scale(0.1 -0.1)">
       <use xlink:href="#DejaVuSans-34"/>
       <use x="63.623047" xlink:href="#DejaVuSans-30"/>
      </g>
     </g>
    </g>
    <g id="ytick_2">
     <g id="line2d_15">
      <path clip-path="url(#p1e991c1a55)" d="M 57.6 218.916171 
L 414.72 218.916171 
" style="fill:none;stroke:#b0b0b0;stroke-linecap:square;stroke-width:0.8;"/>
     </g>
     <g id="line2d_16">
      <g>
       <use style="stroke:#000000;stroke-width:0.8;" x="57.6" xlink:href="#me750eb1ef9" y="218.916171"/>
      </g>
     </g>
     <g id="text_9">
      <!-- 60 -->
      <g transform="translate(37.875 222.71539)scale(0.1 -0.1)">
       <defs>
        <path d="M 2113 2584 
Q 1688 2584 1439 2293 
Q 1191 2003 1191 1497 
Q 1191 994 1439 701 
Q 1688 409 2113 409 
Q 2538 409 2786 701 
Q 3034 994 3034 1497 
Q 3034 2003 2786 2293 
Q 2538 2584 2113 2584 
z
M 3366 4563 
L 3366 3988 
Q 3128 4100 2886 4159 
Q 2644 4219 2406 4219 
Q 1781 4219 1451 3797 
Q 1122 3375 1075 2522 
Q 1259 2794 1537 2939 
Q 1816 3084 2150 3084 
Q 2853 3084 3261 2657 
Q 3669 2231 3669 1497 
Q 3669 778 3244 343 
Q 2819 -91 2113 -91 
Q 1303 -91 875 529 
Q 447 1150 447 2328 
Q 447 3434 972 4092 
Q 1497 4750 2381 4750 
Q 2619 4750 2861 4703 
Q 3103 4656 3366 4563 
z
" id="DejaVuSans-36" transform="scale(0.015625)"/>
       </defs>
       <use xlink:href="#DejaVuSans-36"/>
       <use x="63.623047" xlink:href="#DejaVuSans-30"/>
      </g>
     </g>
    </g>
    <g id="ytick_3">
     <g id="line2d_17">
      <path clip-path="url(#p1e991c1a55)" d="M 57.6 161.723474 
L 414.72 161.723474 
" style="fill:none;stroke:#b0b0b0;stroke-linecap:square;stroke-width:0.8;"/>
     </g>
     <g id="line2d_18">
      <g>
       <use style="stroke:#000000;stroke-width:0.8;" x="57.6" xlink:href="#me750eb1ef9" y="161.723474"/>
      </g>
     </g>
     <g id="text_10">
      <!-- 80 -->
      <g transform="translate(37.875 165.522693)scale(0.1 -0.1)">
       <defs>
        <path d="M 2034 2216 
Q 1584 2216 1326 1975 
Q 1069 1734 1069 1313 
Q 1069 891 1326 650 
Q 1584 409 2034 409 
Q 2484 409 2743 651 
Q 3003 894 3003 1313 
Q 3003 1734 2745 1975 
Q 2488 2216 2034 2216 
z
M 1403 2484 
Q 997 2584 770 2862 
Q 544 3141 544 3541 
Q 544 4100 942 4425 
Q 1341 4750 2034 4750 
Q 2731 4750 3128 4425 
Q 3525 4100 3525 3541 
Q 3525 3141 3298 2862 
Q 3072 2584 2669 2484 
Q 3125 2378 3379 2068 
Q 3634 1759 3634 1313 
Q 3634 634 3220 271 
Q 2806 -91 2034 -91 
Q 1263 -91 848 271 
Q 434 634 434 1313 
Q 434 1759 690 2068 
Q 947 2378 1403 2484 
z
M 1172 3481 
Q 1172 3119 1398 2916 
Q 1625 2713 2034 2713 
Q 2441 2713 2670 2916 
Q 2900 3119 2900 3481 
Q 2900 3844 2670 4047 
Q 2441 4250 2034 4250 
Q 1625 4250 1398 4047 
Q 1172 3844 1172 3481 
z
" id="DejaVuSans-38" transform="scale(0.015625)"/>
       </defs>
       <use xlink:href="#DejaVuSans-38"/>
       <use x="63.623047" xlink:href="#DejaVuSans-30"/>
      </g>
     </g>
    </g>
    <g id="ytick_4">
     <g id="line2d_19">
      <path clip-path="url(#p1e991c1a55)" d="M 57.6 104.530778 
L 414.72 104.530778 
" style="fill:none;stroke:#b0b0b0;stroke-linecap:square;stroke-width:0.8;"/>
     </g>
     <g id="line2d_20">
      <g>
       <use style="stroke:#000000;stroke-width:0.8;" x="57.6" xlink:href="#me750eb1ef9" y="104.530778"/>
      </g>
     </g>
     <g id="text_11">
      <!-- 100 -->
      <g transform="translate(31.5125 108.329997)scale(0.1 -0.1)">
       <use xlink:href="#DejaVuSans-31"/>
       <use x="63.623047" xlink:href="#DejaVuSans-30"/>
       <use x="127.246094" xlink:href="#DejaVuSans-30"/>
      </g>
     </g>
    </g>
    <g id="ytick_5">
     <g id="line2d_21">
      <path clip-path="url(#p1e991c1a55)" d="M 57.6 47.338081 
L 414.72 47.338081 
" style="fill:none;stroke:#b0b0b0;stroke-linecap:square;stroke-width:0.8;"/>
     </g>
     <g id="line2d_22">
      <g>
       <use style="stroke:#000000;stroke-width:0.8;" x="57.6" xlink:href="#me750eb1ef9" y="47.338081"/>
      </g>
     </g>
     <g id="text_12">
      <!-- 120 -->
      <g transform="translate(31.5125 51.1373)scale(0.1 -0.1)">
       <use xlink:href="#DejaVuSans-31"/>
       <use x="63.623047" xlink:href="#DejaVuSans-32"/>
       <use x="127.246094" xlink:href="#DejaVuSans-30"/>
      </g>
     </g>
    </g>
    <g id="text_13">
     <!-- Fitness -->
     <g transform="translate(25.432812 191.845187)rotate(-90)scale(0.1 -0.1)">
      <defs>
       <path d="M 628 4666 
L 3309 4666 
L 3309 4134 
L 1259 4134 
L 1259 2759 
L 3109 2759 
L 3109 2228 
L 1259 2228 
L 1259 0 
L 628 0 
L 628 4666 
z
" id="DejaVuSans-46" transform="scale(0.015625)"/>
      </defs>
      <use xlink:href="#DejaVuSans-46"/>
      <use x="50.269531" xlink:href="#DejaVuSans-69"/>
      <use x="78.052734" xlink:href="#DejaVuSans-74"/>
      <use x="117.261719" xlink:href="#DejaVuSans-6e"/>
      <use x="180.640625" xlink:href="#DejaVuSans-65"/>
      <use x="242.164062" xlink:href="#DejaVuSans-73"/>
      <use x="294.263672" xlink:href="#DejaVuSans-73"/>
     </g>
    </g>
   </g>
   <g id="line2d_23">
    <path clip-path="url(#p1e991c1a55)" d="M 73.832727 286.361308 
L 74.483338 279.822679 
L 75.133948 285.616225 
L 75.784558 286.533072 
L 76.435169 274.511929 
L 77.085779 266.956643 
L 77.736389 287.24566 
L 78.386999 281.025025 
L 79.03761 279.165799 
L 79.68822 285.256449 
L 80.33883 288.448006 
L 80.989441 295.488 
L 81.640051 277.301929 
L 82.290661 279.609135 
L 82.941272 286.632881 
L 83.591882 284.467264 
L 84.242492 276.833061 
L 84.893103 281.463719 
L 85.543713 289.100244 
L 86.194323 275.6841 
L 86.844934 287.194595 
L 87.495544 287.340826 
L 88.146154 291.822932 
L 88.796764 283.046732 
L 89.447375 294.078965 
L 90.097985 278.642185 
L 90.748595 283.74075 
L 91.399206 277.659816 
L 92.049816 291.535452 
L 92.700426 272.11335 
L 93.351037 279.331063 
L 94.001647 277.624567 
L 94.652257 264.867463 
L 95.302868 282.112108 
L 95.953478 275.9619 
L 96.604088 263.317731 
L 97.254698 264.483505 
L 97.905309 266.864932 
L 98.555919 256.466751 
L 99.206529 272.600827 
L 99.85714 254.742786 
L 100.50775 254.313317 
L 101.15836 245.390212 
L 101.808971 259.486617 
L 102.459581 264.867115 
L 103.110191 252.708982 
L 103.760802 245.526094 
L 104.411412 260.049577 
L 105.062022 253.991825 
L 105.712633 249.835379 
L 106.363243 249.945762 
L 107.013853 235.918354 
L 107.664463 240.382885 
L 108.965684 226.79038 
L 109.616294 236.270945 
L 110.266905 243.293585 
L 110.917515 225.345243 
L 111.568125 235.351008 
L 112.869346 242.313863 
L 113.519956 247.500644 
L 114.170567 238.89625 
L 114.821177 250.451305 
L 115.471787 223.507031 
L 116.122398 230.160415 
L 116.773008 228.205121 
L 117.423618 229.938896 
L 118.074228 246.192127 
L 118.724839 233.9716 
L 119.375449 229.905814 
L 120.026059 227.086556 
L 120.67667 243.922656 
L 121.32728 233.423355 
L 121.97789 237.802892 
L 122.628501 238.462246 
L 123.279111 222.574031 
L 123.929721 229.996068 
L 124.580332 246.539854 
L 125.230942 226.45385 
L 125.881552 234.253974 
L 126.532163 233.142107 
L 127.182773 235.945663 
L 127.833383 227.696782 
L 128.483993 229.348002 
L 129.785214 237.506229 
L 130.435824 232.394753 
L 131.737045 231.190318 
L 132.387655 223.786628 
L 133.038266 224.271023 
L 133.688876 226.814984 
L 134.339486 227.302691 
L 134.990097 216.776308 
L 135.640707 215.333771 
L 136.291317 220.109346 
L 136.941927 239.439514 
L 137.592538 222.373995 
L 138.243148 214.049567 
L 138.893758 227.011175 
L 139.544369 225.277025 
L 140.194979 231.917534 
L 140.845589 215.402419 
L 141.4962 237.973108 
L 142.14681 227.684745 
L 142.79742 239.004133 
L 144.098641 211.266399 
L 144.749251 231.30549 
L 145.399862 221.344868 
L 146.050472 223.04027 
L 146.701082 219.63108 
L 147.351692 218.614532 
L 148.002303 227.587705 
L 148.652913 219.301995 
L 149.303523 225.005378 
L 149.954134 218.34053 
L 150.604744 235.147848 
L 151.255354 222.393448 
L 151.905965 217.232338 
L 152.556575 216.45793 
L 153.207185 218.216208 
L 153.857796 219.502202 
L 154.508406 222.566096 
L 155.159016 222.488224 
L 155.809627 224.678193 
L 156.460237 220.225986 
L 157.110847 211.966593 
L 157.761457 215.791485 
L 158.412068 217.767211 
L 159.062678 214.396272 
L 159.713288 220.621501 
L 160.363899 201.805499 
L 161.014509 200.722118 
L 161.665119 204.850342 
L 162.31573 216.590164 
L 162.96634 212.088419 
L 163.61695 212.568803 
L 164.267561 201.02464 
L 164.918171 225.22331 
L 165.568781 200.090242 
L 166.219392 213.863177 
L 166.870002 212.614014 
L 167.520612 211.954322 
L 168.171222 212.467403 
L 168.821833 219.1021 
L 169.472443 211.065613 
L 170.123053 217.924764 
L 170.773664 210.153957 
L 171.424274 216.208485 
L 172.074884 211.604724 
L 172.725495 209.744914 
L 173.376105 206.317729 
L 174.026715 192.920397 
L 174.677326 201.632481 
L 175.327936 204.394284 
L 175.978546 199.896274 
L 176.629156 192.65665 
L 177.279767 203.798527 
L 177.930377 198.056779 
L 178.580987 219.713282 
L 179.231598 201.190421 
L 179.882208 194.788002 
L 180.532818 209.403847 
L 181.183429 182.640159 
L 181.834039 203.736193 
L 182.484649 199.389923 
L 183.13526 175.028436 
L 183.78587 188.125219 
L 184.43648 195.878238 
L 185.087091 185.44001 
L 185.737701 186.452328 
L 186.388311 193.464346 
L 187.038921 189.680857 
L 187.689532 203.482114 
L 188.340142 189.473978 
L 188.990752 196.738289 
L 189.641363 197.967104 
L 190.291973 197.393528 
L 190.942583 200.044574 
L 191.593194 207.759111 
L 192.243804 193.682634 
L 192.894414 197.065372 
L 193.545025 193.007581 
L 194.195635 196.656978 
L 194.846245 202.514123 
L 195.496856 202.318888 
L 196.147466 186.87481 
L 196.798076 184.126379 
L 197.448686 194.076207 
L 198.099297 187.804876 
L 198.749907 194.813535 
L 199.400517 199.445003 
L 200.051128 187.273365 
L 200.701738 199.647679 
L 201.352348 186.012934 
L 202.002959 182.724852 
L 202.653569 194.874326 
L 203.304179 194.913343 
L 203.95479 190.86877 
L 204.6054 189.891982 
L 205.25601 197.942194 
L 205.906621 203.124348 
L 206.557231 205.046444 
L 207.858451 192.257858 
L 208.509062 204.997336 
L 209.159672 206.392502 
L 209.810282 193.005837 
L 210.460893 203.10064 
L 211.111503 194.90321 
L 211.762113 193.256678 
L 212.412724 183.783515 
L 213.063334 186.599379 
L 213.713944 192.319014 
L 214.364555 184.674597 
L 215.015165 199.559883 
L 215.665775 199.217883 
L 216.316385 190.733448 
L 216.966996 191.986282 
L 217.617606 189.853338 
L 218.268216 198.348797 
L 218.918827 194.158856 
L 219.569437 184.752368 
L 220.220047 190.561447 
L 220.870658 198.574901 
L 221.521268 180.579863 
L 222.171878 179.440444 
L 222.822489 191.343612 
L 223.473099 182.154675 
L 224.77432 207.720798 
L 225.42493 178.631065 
L 226.07554 191.996652 
L 226.72615 184.674182 
L 227.376761 190.236694 
L 228.027371 186.840114 
L 228.677981 182.4633 
L 229.328592 179.619761 
L 229.979202 192.489459 
L 230.629812 189.643821 
L 231.280423 169.841485 
L 231.931033 179.766408 
L 232.581643 178.794473 
L 233.232254 190.440953 
L 233.882864 186.864431 
L 234.533474 189.941942 
L 235.184085 183.464031 
L 235.834695 170.910176 
L 236.485305 168.262158 
L 237.135915 171.916528 
L 237.786526 177.22977 
L 238.437136 178.07154 
L 239.087746 174.651614 
L 240.388967 185.200877 
L 241.039577 175.84589 
L 242.340798 185.460594 
L 242.991408 182.463122 
L 243.642019 178.433483 
L 244.292629 185.642277 
L 244.943239 173.261768 
L 245.59385 169.615556 
L 246.24446 173.899902 
L 246.89507 176.38883 
L 247.54568 180.712325 
L 248.196291 168.719367 
L 248.846901 177.563096 
L 249.497511 178.456638 
L 250.148122 189.138035 
L 250.798732 170.469977 
L 251.449342 179.618611 
L 252.099953 178.433483 
L 252.750563 182.85462 
L 253.401173 175.785964 
L 254.051784 182.528777 
L 254.702394 179.105471 
L 255.353004 180.600864 
L 256.003615 179.596192 
L 256.654225 181.175642 
L 257.304835 183.604165 
L 257.955445 175.992469 
L 258.606056 186.08873 
L 259.256666 192.588564 
L 259.907276 175.806638 
L 260.557887 180.607526 
L 261.208497 172.524918 
L 261.859107 198.677446 
L 262.509718 193.564226 
L 263.160328 185.906356 
L 263.810938 186.894546 
L 264.461549 173.249198 
L 265.112159 185.5886 
L 265.762769 179.494062 
L 266.413379 188.466896 
L 267.06399 172.126126 
L 267.7146 180.752812 
L 268.36521 180.634116 
L 269.015821 179.810416 
L 269.666431 177.623343 
L 270.317041 183.654636 
L 270.967652 174.285442 
L 271.618262 176.337765 
L 272.268872 175.072589 
L 272.919483 178.807239 
L 273.570093 171.273921 
L 274.220703 176.296426 
L 274.871314 179.596192 
L 275.521924 172.745835 
L 276.172534 171.413352 
L 276.823144 181.461763 
L 277.473755 178.624713 
L 278.124365 176.700812 
L 278.774975 171.839433 
L 279.425586 167.818071 
L 280.076196 176.312719 
L 280.726806 177.928923 
L 281.377417 170.202802 
L 282.028027 172.334762 
L 282.678637 164.018842 
L 283.329248 178.968094 
L 283.979858 168.33638 
L 284.630468 183.160523 
L 285.281079 162.405191 
L 285.931689 163.531172 
L 286.582299 162.622217 
L 287.232909 187.234043 
L 287.88352 173.312777 
L 288.53413 179.254057 
L 289.18474 178.356044 
L 289.835351 176.828723 
L 290.485961 177.736479 
L 291.136571 185.959852 
L 291.787182 172.288804 
L 292.437792 177.509494 
L 293.088402 171.931474 
L 293.739013 176.406417 
L 294.389623 182.645141 
L 295.040233 197.006772 
L 295.690844 192.620297 
L 296.341454 176.402082 
L 296.992064 187.923335 
L 297.642674 184.299401 
L 298.293285 174.869719 
L 298.943895 193.747718 
L 299.594505 188.540864 
L 300.245116 168.278114 
L 300.895726 179.136608 
L 301.546336 179.160272 
L 302.196947 190.572594 
L 302.847557 177.481358 
L 303.498167 177.833798 
L 304.148778 165.860977 
L 304.799388 178.124475 
L 305.449998 176.151864 
L 306.100608 187.105287 
L 306.751219 180.96316 
L 307.401829 185.201174 
L 308.052439 170.627099 
L 308.70305 172.080932 
L 309.35366 172.464127 
L 310.00427 162.095519 
L 310.654881 180.673662 
L 311.305491 168.869874 
L 311.956101 160.863434 
L 312.606712 162.592765 
L 313.257322 168.070842 
L 313.907932 176.000148 
L 314.558543 171.263328 
L 315.209153 168.055523 
L 316.510373 184.052766 
L 317.160984 177.543383 
L 317.811594 172.823128 
L 318.462204 176.354164 
L 319.112815 170.159872 
L 319.763425 171.686238 
L 320.414035 167.484524 
L 321.064646 181.718223 
L 321.715256 174.178449 
L 322.365866 171.369635 
L 323.016477 175.892118 
L 323.667087 179.100489 
L 324.317697 165.535529 
L 324.968308 161.868356 
L 325.618918 165.514436 
L 326.269528 178.582189 
L 326.920138 162.919852 
L 327.570749 180.579192 
L 328.221359 158.136165 
L 328.871969 176.026755 
L 329.52258 164.307359 
L 330.17319 165.82654 
L 330.8238 168.535533 
L 331.474411 154.712263 
L 332.775631 163.711269 
L 333.426242 153.869692 
L 334.076852 170.596002 
L 334.727462 154.216933 
L 335.378073 159.765571 
L 336.028683 166.545461 
L 336.679293 160.786433 
L 337.329903 181.011064 
L 337.980514 167.343233 
L 339.281734 178.592331 
L 339.932345 151.188391 
L 340.582955 170.271502 
L 341.233565 163.855746 
L 341.884176 156.057823 
L 342.534786 165.229931 
L 343.185396 157.30636 
L 343.836007 162.297955 
L 344.486617 163.247949 
L 345.137227 153.87848 
L 345.787837 159.520388 
L 346.438448 166.787619 
L 347.089058 158.95065 
L 347.739668 165.571156 
L 348.390279 151.612623 
L 349.040889 163.205602 
L 349.691499 164.194518 
L 350.34211 144.503913 
L 350.99272 153.04244 
L 351.64333 147.090105 
L 352.293941 150.170039 
L 352.944551 161.419517 
L 353.595161 156.106335 
L 354.245772 163.64969 
L 354.896382 147.121402 
L 355.546992 151.250062 
L 356.197602 150.54026 
L 356.848213 160.307908 
L 357.498823 166.012927 
L 358.149433 157.705595 
L 358.800044 165.581196 
L 359.450654 159.344314 
L 360.101264 157.932796 
L 360.751875 159.497994 
L 361.402485 166.853716 
L 362.053095 165.267141 
L 362.703706 163.267876 
L 363.354316 160.7992 
L 364.004926 163.248458 
L 364.655537 159.692754 
L 365.306147 157.944671 
L 365.956757 152.930097 
L 366.607367 154.027993 
L 367.257978 157.722539 
L 367.908588 153.836499 
L 368.559198 157.076568 
L 369.860419 152.284126 
L 370.511029 161.440064 
L 371.16164 161.018779 
L 371.81225 159.923436 
L 372.46286 160.042975 
L 373.113471 153.05703 
L 373.764081 168.547359 
L 374.414691 150.451568 
L 375.065302 170.586883 
L 375.715912 159.184819 
L 376.366522 166.864008 
L 377.017132 167.660097 
L 377.667743 162.607704 
L 378.318353 152.469517 
L 378.968963 172.746022 
L 379.619574 159.929975 
L 380.270184 149.48099 
L 380.920794 157.62126 
L 381.571405 159.910047 
L 382.222015 144.034067 
L 382.872625 148.546353 
L 384.173846 162.129503 
L 384.824456 147.754108 
L 385.475066 141.135151 
L 386.125677 158.111304 
L 386.776287 151.303742 
L 387.426897 136.565497 
L 388.728118 156.313085 
L 389.378728 159.134484 
L 390.029339 155.841283 
L 390.679949 148.535962 
L 391.330559 147.482593 
L 391.98117 139.050655 
L 392.63178 143.189466 
L 393.28239 151.129374 
L 393.933001 147.950895 
L 394.583611 149.693532 
L 395.234221 143.686353 
L 395.884831 147.034218 
L 396.535442 157.250712 
L 397.186052 155.498662 
L 397.836662 149.434704 
L 398.487273 148.181061 
L 398.487273 148.181061 
" style="fill:none;stroke:#0000ff;stroke-linecap:square;stroke-width:1.5;"/>
   </g>
   <g id="line2d_24">
    <path clip-path="url(#p1e991c1a55)" d="M 73.832727 228.578884 
L 75.133948 216.840954 
L 75.784558 221.679318 
L 76.435169 210.179644 
L 77.085779 217.210191 
L 77.736389 232.878084 
L 78.386999 220.298645 
L 79.03761 223.107835 
L 79.68822 232.712645 
L 80.33883 221.977752 
L 80.989441 230.830165 
L 81.640051 215.511704 
L 82.290661 227.827408 
L 82.941272 233.234355 
L 83.591882 221.752021 
L 84.893103 212.4941 
L 85.543713 236.939067 
L 86.194323 212.203891 
L 86.844934 228.088753 
L 87.495544 228.862799 
L 88.146154 227.24495 
L 88.796764 216.791549 
L 89.447375 232.098398 
L 90.097985 210.045345 
L 90.748595 226.642119 
L 91.399206 199.945997 
L 92.049816 228.946715 
L 92.700426 202.712423 
L 93.351037 217.365167 
L 94.001647 218.848155 
L 94.652257 197.153096 
L 95.302868 209.431806 
L 95.953478 208.531585 
L 96.604088 202.49793 
L 97.254698 199.65827 
L 97.905309 198.413732 
L 98.555919 193.288082 
L 99.206529 205.523369 
L 99.85714 198.455902 
L 100.50775 199.441855 
L 101.15836 195.498862 
L 101.808971 201.360026 
L 102.459581 220.574277 
L 103.760802 189.06185 
L 104.411412 191.890765 
L 105.062022 193.673929 
L 105.712633 180.813534 
L 106.363243 184.390282 
L 107.013853 181.949179 
L 108.315074 167.999624 
L 109.616294 179.489648 
L 110.266905 178.363491 
L 110.917515 157.110109 
L 111.568125 182.096666 
L 112.218736 176.896128 
L 112.869346 163.125893 
L 113.519956 167.63414 
L 114.170567 164.376876 
L 114.821177 192.745331 
L 115.471787 164.485437 
L 116.122398 166.135175 
L 116.773008 174.641117 
L 117.423618 173.074241 
L 118.074228 184.112865 
L 118.724839 176.526029 
L 119.375449 172.724493 
L 120.026059 170.046071 
L 120.67667 180.017216 
L 121.32728 172.041228 
L 121.97789 168.429523 
L 122.628501 179.857995 
L 123.279111 167.339977 
L 123.929721 175.960983 
L 124.580332 174.262199 
L 125.230942 182.29775 
L 125.881552 173.611097 
L 126.532163 185.757538 
L 127.833383 151.233974 
L 128.483993 173.982528 
L 129.785214 176.279343 
L 130.435824 173.539961 
L 131.737045 175.064532 
L 132.387655 177.534613 
L 133.038266 169.109072 
L 133.688876 178.7392 
L 134.339486 172.273876 
L 134.990097 155.822383 
L 135.640707 159.019305 
L 136.291317 166.039248 
L 136.941927 191.43222 
L 137.592538 160.531145 
L 138.243148 161.49854 
L 138.893758 171.621836 
L 139.544369 173.8373 
L 140.845589 163.544737 
L 141.4962 186.10235 
L 142.79742 170.236662 
L 143.448031 171.309278 
L 144.098641 161.653477 
L 144.749251 184.908653 
L 145.399862 179.095546 
L 146.050472 170.143434 
L 146.701082 167.111752 
L 147.351692 169.682955 
L 148.002303 169.898572 
L 148.652913 164.999957 
L 149.303523 169.338629 
L 149.954134 169.966077 
L 150.604744 177.194369 
L 151.255354 164.582195 
L 151.905965 165.65175 
L 152.556575 158.069188 
L 153.207185 167.115341 
L 153.857796 167.087351 
L 154.508406 169.127073 
L 155.159016 164.450825 
L 155.809627 169.765383 
L 156.460237 165.928269 
L 157.110847 153.79387 
L 157.761457 164.95046 
L 158.412068 158.478119 
L 159.062678 165.140248 
L 159.713288 165.571623 
L 160.363899 160.29632 
L 161.014509 151.292885 
L 161.665119 151.573005 
L 162.31573 170.591523 
L 162.96634 159.762404 
L 163.61695 165.781221 
L 164.267561 147.492581 
L 164.918171 170.160436 
L 165.568781 154.027653 
L 166.219392 171.785337 
L 166.870002 158.117477 
L 168.171222 170.575675 
L 168.821833 169.029095 
L 169.472443 151.248167 
L 170.123053 164.079202 
L 170.773664 146.1033 
L 171.424274 152.301162 
L 172.074884 151.60295 
L 172.725495 159.065216 
L 173.376105 158.983536 
L 174.026715 148.049864 
L 174.677326 153.796185 
L 175.327936 162.720353 
L 175.978546 146.702187 
L 176.629156 146.023855 
L 177.279767 152.397896 
L 177.930377 141.771008 
L 178.580987 154.811673 
L 179.231598 157.495991 
L 179.882208 145.571265 
L 180.532818 164.157487 
L 181.183429 140.622493 
L 181.834039 148.406327 
L 182.484649 151.238191 
L 183.13526 128.636143 
L 183.78587 143.026729 
L 184.43648 151.435695 
L 185.737701 138.028128 
L 186.388311 149.009161 
L 187.038921 134.011967 
L 187.689532 154.701743 
L 188.340142 136.237172 
L 188.990752 148.112331 
L 189.641363 149.984558 
L 190.291973 147.119629 
L 190.942583 142.242036 
L 191.593194 151.146812 
L 192.243804 145.858092 
L 192.894414 149.996538 
L 193.545025 136.334246 
L 194.195635 146.082937 
L 194.846245 159.924693 
L 195.496856 155.39533 
L 196.147466 124.591309 
L 196.798076 138.597074 
L 197.448686 146.349473 
L 198.099297 130.604289 
L 198.749907 131.573337 
L 199.400517 151.081171 
L 200.051128 138.915635 
L 200.701738 145.24932 
L 201.352348 141.326478 
L 202.002959 136.25094 
L 202.653569 133.96004 
L 203.304179 144.076031 
L 203.95479 140.040886 
L 204.6054 133.59013 
L 205.25601 142.043632 
L 205.906621 139.036194 
L 206.557231 142.837711 
L 207.207841 144.600956 
L 207.858451 131.269573 
L 208.509062 155.396525 
L 209.159672 142.294714 
L 209.810282 141.209887 
L 210.460893 138.321464 
L 211.111503 141.703685 
L 211.762113 143.350536 
L 212.412724 123.949679 
L 213.063334 137.8325 
L 213.713944 137.806213 
L 214.364555 145.177075 
L 215.015165 141.243228 
L 215.665775 154.258921 
L 216.316385 145.885021 
L 216.966996 142.307801 
L 217.617606 140.094108 
L 218.268216 139.789972 
L 218.918827 144.629145 
L 219.569437 134.916555 
L 220.220047 142.515036 
L 220.870658 126.217949 
L 221.521268 136.19519 
L 222.171878 143.270705 
L 222.822489 136.196088 
L 223.473099 130.624961 
L 224.77432 143.423294 
L 225.42493 131.634857 
L 226.07554 148.988319 
L 226.72615 138.814156 
L 227.376761 134.255838 
L 228.027371 133.065306 
L 228.677981 119.551409 
L 229.328592 125.89946 
L 229.979202 133.566028 
L 230.629812 136.740131 
L 231.280423 125.140709 
L 231.931033 131.885283 
L 232.581643 136.814438 
L 233.232254 146.882504 
L 233.882864 141.937128 
L 234.533474 138.74375 
L 235.184085 137.247852 
L 235.834695 125.606764 
L 236.485305 121.633924 
L 237.135915 127.608973 
L 237.786526 126.883043 
L 238.437136 140.110949 
L 239.087746 123.56496 
L 239.738357 142.694994 
L 240.388967 147.323611 
L 241.039577 132.465545 
L 241.690188 143.420241 
L 242.340798 130.921744 
L 242.991408 114.082227 
L 243.642019 118.232232 
L 244.292629 141.276562 
L 244.943239 122.138535 
L 245.59385 117.242952 
L 246.24446 129.905129 
L 246.89507 122.165449 
L 247.54568 108.038721 
L 248.196291 116.980412 
L 248.846901 113.984038 
L 249.497511 143.454962 
L 250.148122 125.660267 
L 250.798732 126.451157 
L 251.449342 130.115387 
L 252.099953 130.497951 
L 252.750563 110.127827 
L 253.401173 137.608967 
L 254.051784 127.942065 
L 254.702394 125.918004 
L 255.353004 133.957924 
L 256.003615 140.496876 
L 256.654225 134.065047 
L 257.304835 130.601405 
L 257.955445 132.594168 
L 258.606056 123.738307 
L 259.256666 129.87655 
L 260.557887 124.155049 
L 261.208497 125.709794 
L 261.859107 135.530549 
L 262.509718 137.251677 
L 263.160328 127.702905 
L 263.810938 138.807805 
L 264.461549 134.439871 
L 265.112159 129.01258 
L 265.762769 126.036819 
L 266.413379 146.484481 
L 267.06399 114.128004 
L 268.36521 127.297397 
L 269.015821 138.580762 
L 269.666431 123.282428 
L 270.317041 135.559532 
L 270.967652 124.614728 
L 271.618262 130.184672 
L 272.268872 119.840765 
L 272.919483 137.603504 
L 273.570093 115.315419 
L 274.220703 131.058674 
L 274.871314 117.917018 
L 275.521924 126.177828 
L 276.172534 114.053208 
L 276.823144 140.892635 
L 277.473755 124.323809 
L 278.124365 128.211066 
L 278.774975 121.797345 
L 279.425586 116.564977 
L 280.076196 125.005386 
L 280.726806 128.420757 
L 281.377417 126.035527 
L 282.028027 125.124446 
L 282.678637 122.768643 
L 283.329248 129.371924 
L 283.979858 128.421546 
L 284.630468 135.954294 
L 285.931689 115.320316 
L 286.582299 112.294512 
L 287.232909 131.513723 
L 287.88352 119.502984 
L 288.53413 127.934711 
L 289.18474 125.874479 
L 289.835351 120.789657 
L 290.485961 114.354162 
L 291.136571 128.964493 
L 291.787182 131.258191 
L 292.437792 123.702379 
L 293.088402 129.967434 
L 293.739013 124.380332 
L 294.389623 116.847434 
L 295.040233 130.845335 
L 295.690844 115.53218 
L 296.341454 104.628691 
L 296.992064 132.731671 
L 297.642674 109.828705 
L 298.293285 109.96408 
L 298.943895 125.239107 
L 299.594505 116.937629 
L 300.245116 114.702129 
L 300.895726 109.459076 
L 301.546336 117.650013 
L 302.196947 102.073897 
L 302.847557 116.393612 
L 303.498167 117.281606 
L 304.148778 112.836501 
L 304.799388 127.850294 
L 305.449998 116.319593 
L 306.100608 109.54882 
L 306.751219 122.265443 
L 307.401829 121.540712 
L 308.052439 110.620319 
L 309.35366 105.92515 
L 310.00427 99.118406 
L 310.654881 136.746876 
L 311.956101 103.616038 
L 312.606712 117.041156 
L 313.257322 117.649069 
L 313.907932 111.61263 
L 314.558543 123.682937 
L 315.209153 121.138506 
L 315.859763 116.223243 
L 316.510373 124.034463 
L 317.160984 117.184879 
L 317.811594 117.345318 
L 318.462204 112.578648 
L 319.112815 113.701305 
L 319.763425 123.061655 
L 320.414035 106.09339 
L 321.064646 116.445062 
L 321.715256 118.25789 
L 322.365866 118.48404 
L 323.016477 123.95055 
L 323.667087 115.13027 
L 324.317697 109.260168 
L 324.968308 109.519482 
L 325.618918 112.592454 
L 326.269528 119.253965 
L 326.920138 94.377334 
L 327.570749 105.120432 
L 328.221359 101.734216 
L 328.871969 121.352224 
L 329.52258 112.535887 
L 330.17319 111.15487 
L 330.8238 116.294749 
L 331.474411 103.788159 
L 332.125021 100.384519 
L 332.775631 114.806511 
L 333.426242 101.042652 
L 334.076852 110.07645 
L 334.727462 107.554542 
L 335.378073 109.291357 
L 336.028683 112.196269 
L 336.679293 107.502499 
L 337.329903 108.297268 
L 337.980514 112.789459 
L 338.631124 119.045232 
L 339.281734 117.946841 
L 339.932345 101.823026 
L 340.582955 116.015975 
L 341.233565 102.268151 
L 341.884176 101.566446 
L 342.534786 99.321685 
L 343.185396 103.954338 
L 343.836007 105.208919 
L 344.486617 102.779822 
L 345.137227 97.259334 
L 345.787837 110.227848 
L 346.438448 106.069232 
L 347.089058 99.122046 
L 347.739668 113.703627 
L 348.390279 109.622916 
L 349.040889 111.630255 
L 349.691499 98.1914 
L 350.34211 98.508479 
L 350.99272 91.717278 
L 351.64333 96.669596 
L 352.293941 99.336647 
L 352.944551 110.092644 
L 353.595161 105.632794 
L 354.245772 106.53468 
L 354.896382 95.341571 
L 355.546992 101.96205 
L 356.197602 106.079915 
L 356.848213 98.272263 
L 357.498823 108.967252 
L 358.149433 101.661103 
L 358.800044 108.657647 
L 359.450654 106.617943 
L 360.101264 99.641897 
L 360.751875 104.398223 
L 361.402485 112.746327 
L 362.053095 116.528365 
L 363.354316 96.765988 
L 364.004926 114.030419 
L 364.655537 101.961789 
L 365.306147 101.629944 
L 365.956757 94.970411 
L 367.257978 111.477978 
L 367.908588 98.164552 
L 368.559198 105.689223 
L 369.209809 96.722715 
L 369.860419 101.133395 
L 370.511029 114.777341 
L 371.16164 111.873715 
L 371.81225 106.865352 
L 372.46286 107.44633 
L 373.113471 89.586428 
L 373.764081 106.745336 
L 374.414691 86.331655 
L 375.065302 103.531555 
L 375.715912 101.697363 
L 376.366522 110.819099 
L 377.017132 98.052656 
L 377.667743 105.072862 
L 378.318353 86.512854 
L 378.968963 114.793364 
L 379.619574 107.02852 
L 380.270184 106.576174 
L 380.920794 107.486864 
L 381.571405 91.465065 
L 382.222015 85.327963 
L 382.872625 108.324321 
L 383.523236 102.581619 
L 384.173846 112.825202 
L 384.824456 100.559052 
L 385.475066 98.697491 
L 386.125677 110.31696 
L 387.426897 88.94007 
L 388.077508 79.920936 
L 388.728118 104.157718 
L 389.378728 91.093409 
L 390.029339 102.42082 
L 390.679949 98.130815 
L 391.330559 96.471997 
L 391.98117 95.79417 
L 392.63178 96.272375 
L 393.28239 97.756855 
L 393.933001 104.870843 
L 394.583611 103.864628 
L 395.234221 91.262023 
L 395.884831 88.758607 
L 396.535442 104.278036 
L 397.186052 91.800832 
L 397.836662 93.880284 
L 398.487273 101.082494 
L 398.487273 101.082494 
" style="fill:none;stroke:#008000;stroke-dasharray:9.6,2.4,1.5,2.4;stroke-dashoffset:0;stroke-width:1.5;"/>
   </g>
   <g id="line2d_25">
    <path clip-path="url(#p1e991c1a55)" d="M 73.832727 167.340614 
L 74.483338 173.059884 
L 75.133948 172.549235 
L 75.784558 180.51536 
L 76.435169 146.199742 
L 77.085779 181.434529 
L 77.736389 139.254915 
L 78.386999 181.740918 
L 79.03761 176.532298 
L 79.68822 186.23463 
L 80.33883 173.264144 
L 80.989441 184.906942 
L 81.640051 182.047308 
L 82.290661 164.583109 
L 82.941272 173.264144 
L 83.591882 187.051669 
L 84.242492 145.586964 
L 84.893103 162.234123 
L 85.543713 172.140716 
L 86.194323 145.995483 
L 86.844934 164.17459 
L 87.495544 192.260289 
L 88.796764 145.586964 
L 89.447375 176.532298 
L 90.097985 165.502278 
L 90.748595 193.179458 
L 91.399206 119.339601 
L 92.049816 191.238991 
L 92.700426 140.684732 
L 93.351037 177.145077 
L 94.001647 133.944165 
L 94.652257 130.88027 
L 95.302868 153.859479 
L 95.953478 154.880777 
L 96.604088 144.769925 
L 97.254698 156.719113 
L 98.555919 125.875909 
L 99.206529 119.85025 
L 99.85714 144.565665 
L 100.50775 126.284428 
L 101.15836 165.910797 
L 101.808971 123.629053 
L 102.459581 178.370634 
L 103.110191 158.251061 
L 103.760802 166.217186 
L 104.411412 120.05451 
L 105.062022 137.927227 
L 105.712633 116.684226 
L 106.363243 100.139196 
L 107.013853 138.846396 
L 107.664463 120.565159 
L 108.315074 79.713233 
L 108.965684 118.624692 
L 109.616294 115.458668 
L 110.266905 131.901568 
L 110.917515 114.23311 
L 111.568125 138.131487 
L 112.218736 117.194875 
L 112.869346 137.825098 
L 113.519956 132.003698 
L 114.170567 93.909277 
L 114.821177 117.194875 
L 115.471787 116.684226 
L 116.122398 97.381691 
L 116.773008 98.505119 
L 117.423618 138.744266 
L 118.074228 140.071954 
L 118.724839 121.280068 
L 119.375449 135.578242 
L 120.026059 137.110189 
L 120.67667 115.867187 
L 121.32728 113.722461 
L 121.97789 109.330879 
L 122.628501 118.726822 
L 123.279111 124.139702 
L 123.929721 156.106335 
L 124.580332 115.560798 
L 125.230942 125.875909 
L 125.881552 95.032705 
L 126.532163 117.807654 
L 127.182773 91.764551 
L 127.833383 117.705524 
L 128.483993 115.050149 
L 129.134604 125.26313 
L 129.785214 113.007553 
L 130.435824 139.561304 
L 131.086435 122.403496 
L 131.737045 101.773273 
L 133.038266 133.739905 
L 133.688876 133.024996 
L 134.339486 98.607249 
L 134.990097 96.973172 
L 135.640707 98.505119 
L 136.291317 138.744266 
L 136.941927 137.518708 
L 137.592538 97.79021 
L 138.243148 120.769418 
L 138.893758 137.314449 
L 140.194979 112.599033 
L 140.845589 118.420433 
L 141.4962 142.318809 
L 142.14681 119.339601 
L 142.79742 120.05451 
L 143.448031 118.216173 
L 144.098641 117.909784 
L 144.749251 136.49741 
L 145.399862 115.254408 
L 146.050472 137.314449 
L 146.701082 100.241326 
L 147.351692 119.441731 
L 148.002303 97.79021 
L 148.652913 119.135341 
L 149.303523 118.828952 
L 149.954134 112.292644 
L 150.604744 136.39528 
L 151.255354 119.237471 
L 151.905965 125.161001 
L 152.556575 136.49741 
L 153.207185 117.705524 
L 153.857796 116.990615 
L 154.508406 98.402989 
L 155.159016 115.254408 
L 155.809627 96.973172 
L 156.460237 133.024996 
L 157.110847 116.275707 
L 157.761457 135.680372 
L 158.412068 124.446092 
L 159.062678 100.343455 
L 159.713288 98.505119 
L 160.363899 121.075808 
L 161.014509 94.113537 
L 161.665119 91.049642 
L 162.31573 137.212319 
L 162.96634 139.254915 
L 163.61695 119.441731 
L 164.267561 93.909277 
L 164.918171 135.271852 
L 165.568781 123.016274 
L 166.219392 118.522563 
L 166.870002 133.331386 
L 167.520612 133.433516 
L 168.171222 119.95238 
L 168.821833 117.092745 
L 169.472443 93.500758 
L 170.123053 134.965463 
L 171.424274 95.543354 
L 172.074884 92.47946 
L 172.725495 98.300859 
L 173.376105 74.913131 
L 174.026715 92.990109 
L 174.677326 92.17307 
L 175.327936 130.165361 
L 175.978546 112.496903 
L 176.629156 113.313942 
L 177.930377 78.181285 
L 178.580987 92.785849 
L 179.231598 113.416072 
L 179.882208 112.292644 
L 180.532818 129.246193 
L 181.183429 91.458161 
L 181.834039 100.547715 
L 182.484649 111.271346 
L 183.13526 89.007046 
L 183.78587 94.215666 
L 184.43648 110.658567 
L 185.737701 93.909277 
L 186.388311 111.679865 
L 187.038921 121.382197 
L 187.689532 93.602888 
L 188.340142 74.096093 
L 188.990752 113.620331 
L 189.641363 113.313942 
L 190.291973 125.978039 
L 190.942583 110.454307 
L 191.593194 100.854104 
L 192.243804 95.951873 
L 192.894414 97.279561 
L 193.545025 105.347816 
L 194.195635 100.139196 
L 194.846245 115.152279 
L 195.496856 116.684226 
L 196.147466 90.743253 
L 196.798076 113.518202 
L 197.448686 118.114043 
L 198.749907 71.236458 
L 199.400517 114.948019 
L 200.051128 91.968811 
L 200.701738 132.207958 
L 201.352348 94.419926 
L 202.002959 99.322157 
L 202.653569 81.755829 
L 203.304179 114.13098 
L 203.95479 112.701163 
L 204.6054 113.620331 
L 205.25601 113.518202 
L 205.906621 111.373475 
L 207.207841 90.641123 
L 207.858451 92.581589 
L 208.509062 97.483821 
L 209.159672 114.028851 
L 209.810282 113.722461 
L 210.460893 109.535139 
L 211.111503 111.067086 
L 212.412724 77.262117 
L 213.063334 100.037066 
L 213.713944 83.900555 
L 214.364555 115.765058 
L 215.015165 110.964956 
L 215.665775 95.236965 
L 216.316385 114.23311 
L 216.966996 99.322157 
L 217.617606 90.538993 
L 218.268216 94.317796 
L 218.918827 111.577735 
L 219.569437 117.092745 
L 220.220047 113.926721 
L 220.870658 97.177431 
L 221.521268 90.743253 
L 222.171878 111.884125 
L 222.822489 93.194368 
L 223.473099 90.641123 
L 224.123709 95.747614 
L 224.77432 93.807147 
L 225.42493 91.356032 
L 226.07554 116.275707 
L 226.72615 77.568507 
L 227.376761 113.722461 
L 228.027371 110.760697 
L 228.677981 73.687574 
L 229.328592 94.113537 
L 229.979202 78.691935 
L 230.629812 92.2752 
L 231.280423 93.296498 
L 231.931033 110.250047 
L 232.581643 114.33524 
L 233.232254 113.824591 
L 233.882864 126.284428 
L 234.533474 93.296498 
L 235.184085 99.934936 
L 235.834695 76.342949 
L 236.485305 93.500758 
L 237.135915 78.794064 
L 238.437136 117.603394 
L 239.087746 94.113537 
L 239.738357 112.803293 
L 240.388967 115.050149 
L 241.039577 77.262117 
L 241.690188 93.602888 
L 242.340798 92.990109 
L 242.991408 71.134328 
L 243.642019 68.581083 
L 244.292629 111.067086 
L 244.943239 91.151772 
L 245.59385 90.947512 
L 246.24446 78.589805 
L 246.89507 71.032198 
L 247.54568 93.602888 
L 248.196291 94.113537 
L 248.846901 94.930575 
L 249.497511 92.581589 
L 250.148122 98.198729 
L 250.798732 98.607249 
L 251.449342 96.156133 
L 252.099953 90.845383 
L 252.750563 95.032705 
L 253.401173 90.947512 
L 254.051784 93.807147 
L 254.702394 114.948019 
L 255.353004 93.194368 
L 256.003615 98.300859 
L 256.654225 91.866681 
L 257.304835 92.581589 
L 257.955445 95.339094 
L 258.606056 92.2752 
L 259.256666 75.8323 
L 259.907276 94.624186 
L 260.557887 92.887979 
L 261.208497 92.37733 
L 261.859107 95.134835 
L 262.509718 95.441224 
L 263.160328 71.644977 
L 263.810938 113.620331 
L 264.461549 109.12662 
L 265.112159 92.47946 
L 265.762769 93.705017 
L 266.413379 117.399135 
L 267.06399 96.156133 
L 267.7146 93.705017 
L 268.36521 72.768405 
L 269.015821 90.641123 
L 269.666431 75.219521 
L 270.317041 93.500758 
L 270.967652 89.619825 
L 271.618262 92.581589 
L 272.268872 93.092239 
L 272.919483 111.884125 
L 273.570093 74.606742 
L 274.220703 93.705017 
L 274.871314 93.092239 
L 275.521924 88.496397 
L 276.172534 67.049136 
L 276.823144 113.109682 
L 277.473755 91.764551 
L 278.124365 112.905423 
L 278.774975 87.372969 
L 279.425586 90.845383 
L 280.076196 72.155626 
L 280.726806 69.091732 
L 281.377417 86.249541 
L 282.028027 87.679358 
L 282.678637 95.339094 
L 283.329248 107.492542 
L 283.979858 93.398628 
L 284.630468 115.458668 
L 285.281079 88.700656 
L 285.931689 66.947006 
L 286.582299 90.538993 
L 287.232909 94.419926 
L 287.88352 85.841022 
L 288.53413 89.517695 
L 289.18474 94.828445 
L 289.835351 88.904916 
L 290.485961 91.253902 
L 291.136571 90.947512 
L 291.787182 75.8323 
L 292.437792 95.951873 
L 293.088402 88.802786 
L 293.739013 90.538993 
L 294.389623 69.704511 
L 295.040233 81.34731 
L 296.341454 94.930575 
L 296.992064 110.454307 
L 297.642674 72.257756 
L 298.293285 65.517188 
L 298.943895 89.007046 
L 299.594505 63.985241 
L 300.245116 93.602888 
L 300.895726 61.534126 
L 301.546336 68.478953 
L 302.196947 77.568507 
L 302.847557 82.777127 
L 303.498167 94.726316 
L 304.148778 78.487675 
L 304.799388 95.441224 
L 305.449998 85.432502 
L 306.100608 63.576722 
L 306.751219 61.840515 
L 307.401829 76.036559 
L 308.052439 83.594166 
L 308.70305 74.096093 
L 309.35366 76.445079 
L 310.00427 66.742746 
L 310.654881 92.17307 
L 311.305491 70.31729 
L 311.956101 83.287776 
L 312.606712 58.776621 
L 313.257322 92.581589 
L 313.907932 80.734531 
L 314.558543 58.674491 
L 315.209153 77.159987 
L 315.859763 91.458161 
L 316.510373 95.543354 
L 317.160984 84.615464 
L 317.811594 60.002178 
L 318.462204 73.176925 
L 319.112815 75.62804 
L 319.763425 82.777127 
L 320.414035 63.576722 
L 321.064646 74.606742 
L 321.715256 61.227736 
L 322.365866 73.891833 
L 323.016477 98.913638 
L 323.667087 77.874896 
L 324.317697 63.474592 
L 324.968308 62.657554 
L 325.618918 66.334227 
L 326.269528 71.134328 
L 326.920138 69.806641 
L 327.570749 62.861813 
L 328.221359 60.206438 
L 328.871969 99.424287 
L 329.52258 87.475099 
L 330.17319 63.474592 
L 330.8238 67.253395 
L 331.474411 77.670636 
L 332.125021 61.329866 
L 332.775631 68.581083 
L 333.426242 80.019622 
L 334.076852 80.326012 
L 334.727462 55.916986 
L 335.378073 62.249034 
L 336.028683 80.223882 
L 336.679293 76.138689 
L 337.329903 70.521549 
L 337.980514 86.76019 
L 338.631124 99.832806 
L 339.281734 66.538487 
L 339.932345 56.836154 
L 340.582955 66.334227 
L 341.233565 62.146904 
L 341.884176 60.002178 
L 342.534786 55.916986 
L 343.185396 57.346803 
L 343.836007 69.398121 
L 344.486617 60.104308 
L 345.137227 57.142544 
L 345.787837 71.236458 
L 346.438448 57.448933 
L 347.089058 77.057858 
L 347.739668 73.891833 
L 348.390279 84.819723 
L 349.040889 75.219521 
L 349.691499 67.559785 
L 350.34211 66.742746 
L 350.99272 58.061712 
L 352.293941 79.406843 
L 352.944551 88.598527 
L 353.595161 82.368608 
L 354.245772 73.074795 
L 354.896382 72.564146 
L 356.197602 56.836154 
L 356.848213 63.678852 
L 357.498823 81.24518 
L 358.149433 69.90877 
L 358.800044 63.372462 
L 359.450654 66.742746 
L 360.101264 60.512827 
L 360.751875 61.636255 
L 361.402485 82.879257 
L 362.053095 63.066073 
L 362.703706 64.70015 
L 363.354316 53.568 
L 364.004926 80.326012 
L 364.655537 61.534126 
L 365.956757 71.338588 
L 366.607367 67.764044 
L 367.257978 79.508973 
L 367.908588 64.904409 
L 368.559198 67.253395 
L 369.209809 64.087371 
L 369.860419 58.265972 
L 370.511029 84.615464 
L 371.16164 78.589805 
L 371.81225 86.147411 
L 372.46286 62.044775 
L 373.113471 61.227736 
L 373.764081 77.466377 
L 374.414691 57.142544 
L 375.065302 61.227736 
L 375.715912 77.670636 
L 376.366522 61.840515 
L 377.017132 63.576722 
L 377.667743 86.86232 
L 378.318353 63.474592 
L 378.968963 66.436357 
L 379.619574 67.968304 
L 380.270184 76.649338 
L 380.920794 75.73017 
L 382.222015 59.491529 
L 382.872625 78.385545 
L 383.523236 61.023477 
L 384.173846 78.385545 
L 384.824456 65.108669 
L 385.475066 66.640616 
L 386.125677 54.180779 
L 386.776287 58.265972 
L 387.426897 59.593659 
L 388.077508 60.512827 
L 388.728118 96.258263 
L 389.378728 64.49589 
L 390.029339 77.466377 
L 390.679949 62.657554 
L 391.330559 64.59802 
L 391.98117 56.836154 
L 392.63178 65.210799 
L 393.28239 61.738385 
L 393.933001 66.129967 
L 394.583611 87.577228 
L 395.234221 68.683213 
L 395.884831 56.325505 
L 396.535442 73.074795 
L 397.186052 80.938791 
L 397.836662 61.636255 
L 398.487273 62.861813 
L 398.487273 62.861813 
" style="fill:none;stroke:#ff0000;stroke-linecap:square;stroke-width:1.5;"/>
   </g>
   <g id="patch_3">
    <path d="M 57.6 307.584 
L 57.6 41.472 
" style="fill:none;stroke:#000000;stroke-linecap:square;stroke-linejoin:miter;stroke-width:0.8;"/>
   </g>
   <g id="patch_4">
    <path d="M 414.72 307.584 
L 414.72 41.472 
" style="fill:none;stroke:#000000;stroke-linecap:square;stroke-linejoin:miter;stroke-width:0.8;"/>
   </g>
   <g id="patch_5">
    <path d="M 57.6 307.584 
L 414.72 307.584 
" style="fill:none;stroke:#000000;stroke-linecap:square;stroke-linejoin:miter;stroke-width:0.8;"/>
   </g>
   <g id="patch_6">
    <path d="M 57.6 41.472 
L 414.72 41.472 
" style="fill:none;stroke:#000000;stroke-linecap:square;stroke-linejoin:miter;stroke-width:0.8;"/>
   </g>
   <g id="text_14">
    <!-- Population's average and best fitness -->
    <g transform="translate(123.529687 35.472)scale(0.12 -0.12)">
     <defs>
      <path d="M 1259 4147 
L 1259 2394 
L 2053 2394 
Q 2494 2394 2734 2622 
Q 2975 2850 2975 3272 
Q 2975 3691 2734 3919 
Q 2494 4147 2053 4147 
L 1259 4147 
z
M 628 4666 
L 2053 4666 
Q 2838 4666 3239 4311 
Q 3641 3956 3641 3272 
Q 3641 2581 3239 2228 
Q 2838 1875 2053 1875 
L 1259 1875 
L 1259 0 
L 628 0 
L 628 4666 
z
" id="DejaVuSans-50" transform="scale(0.015625)"/>
      <path d="M 1159 525 
L 1159 -1331 
L 581 -1331 
L 581 3500 
L 1159 3500 
L 1159 2969 
Q 1341 3281 1617 3432 
Q 1894 3584 2278 3584 
Q 2916 3584 3314 3078 
Q 3713 2572 3713 1747 
Q 3713 922 3314 415 
Q 2916 -91 2278 -91 
Q 1894 -91 1617 61 
Q 1341 213 1159 525 
z
M 3116 1747 
Q 3116 2381 2855 2742 
Q 2594 3103 2138 3103 
Q 1681 3103 1420 2742 
Q 1159 2381 1159 1747 
Q 1159 1113 1420 752 
Q 1681 391 2138 391 
Q 2594 391 2855 752 
Q 3116 1113 3116 1747 
z
" id="DejaVuSans-70" transform="scale(0.015625)"/>
      <path d="M 544 1381 
L 544 3500 
L 1119 3500 
L 1119 1403 
Q 1119 906 1312 657 
Q 1506 409 1894 409 
Q 2359 409 2629 706 
Q 2900 1003 2900 1516 
L 2900 3500 
L 3475 3500 
L 3475 0 
L 2900 0 
L 2900 538 
Q 2691 219 2414 64 
Q 2138 -91 1772 -91 
Q 1169 -91 856 284 
Q 544 659 544 1381 
z
M 1991 3584 
L 1991 3584 
z
" id="DejaVuSans-75" transform="scale(0.015625)"/>
      <path d="M 603 4863 
L 1178 4863 
L 1178 0 
L 603 0 
L 603 4863 
z
" id="DejaVuSans-6c" transform="scale(0.015625)"/>
      <path d="M 1147 4666 
L 1147 2931 
L 616 2931 
L 616 4666 
L 1147 4666 
z
" id="DejaVuSans-27" transform="scale(0.015625)"/>
      <path id="DejaVuSans-20" transform="scale(0.015625)"/>
      <path d="M 191 3500 
L 800 3500 
L 1894 563 
L 2988 3500 
L 3597 3500 
L 2284 0 
L 1503 0 
L 191 3500 
z
" id="DejaVuSans-76" transform="scale(0.015625)"/>
      <path d="M 2906 1791 
Q 2906 2416 2648 2759 
Q 2391 3103 1925 3103 
Q 1463 3103 1205 2759 
Q 947 2416 947 1791 
Q 947 1169 1205 825 
Q 1463 481 1925 481 
Q 2391 481 2648 825 
Q 2906 1169 2906 1791 
z
M 3481 434 
Q 3481 -459 3084 -895 
Q 2688 -1331 1869 -1331 
Q 1566 -1331 1297 -1286 
Q 1028 -1241 775 -1147 
L 775 -588 
Q 1028 -725 1275 -790 
Q 1522 -856 1778 -856 
Q 2344 -856 2625 -561 
Q 2906 -266 2906 331 
L 2906 616 
Q 2728 306 2450 153 
Q 2172 0 1784 0 
Q 1141 0 747 490 
Q 353 981 353 1791 
Q 353 2603 747 3093 
Q 1141 3584 1784 3584 
Q 2172 3584 2450 3431 
Q 2728 3278 2906 2969 
L 2906 3500 
L 3481 3500 
L 3481 434 
z
" id="DejaVuSans-67" transform="scale(0.015625)"/>
      <path d="M 2906 2969 
L 2906 4863 
L 3481 4863 
L 3481 0 
L 2906 0 
L 2906 525 
Q 2725 213 2448 61 
Q 2172 -91 1784 -91 
Q 1150 -91 751 415 
Q 353 922 353 1747 
Q 353 2572 751 3078 
Q 1150 3584 1784 3584 
Q 2172 3584 2448 3432 
Q 2725 3281 2906 2969 
z
M 947 1747 
Q 947 1113 1208 752 
Q 1469 391 1925 391 
Q 2381 391 2643 752 
Q 2906 1113 2906 1747 
Q 2906 2381 2643 2742 
Q 2381 3103 1925 3103 
Q 1469 3103 1208 2742 
Q 947 2381 947 1747 
z
" id="DejaVuSans-64" transform="scale(0.015625)"/>
      <path d="M 3116 1747 
Q 3116 2381 2855 2742 
Q 2594 3103 2138 3103 
Q 1681 3103 1420 2742 
Q 1159 2381 1159 1747 
Q 1159 1113 1420 752 
Q 1681 391 2138 391 
Q 2594 391 2855 752 
Q 3116 1113 3116 1747 
z
M 1159 2969 
Q 1341 3281 1617 3432 
Q 1894 3584 2278 3584 
Q 2916 3584 3314 3078 
Q 3713 2572 3713 1747 
Q 3713 922 3314 415 
Q 2916 -91 2278 -91 
Q 1894 -91 1617 61 
Q 1341 213 1159 525 
L 1159 0 
L 581 0 
L 581 4863 
L 1159 4863 
L 1159 2969 
z
" id="DejaVuSans-62" transform="scale(0.015625)"/>
      <path d="M 2375 4863 
L 2375 4384 
L 1825 4384 
Q 1516 4384 1395 4259 
Q 1275 4134 1275 3809 
L 1275 3500 
L 2222 3500 
L 2222 3053 
L 1275 3053 
L 1275 0 
L 697 0 
L 697 3053 
L 147 3053 
L 147 3500 
L 697 3500 
L 697 3744 
Q 697 4328 969 4595 
Q 1241 4863 1831 4863 
L 2375 4863 
z
" id="DejaVuSans-66" transform="scale(0.015625)"/>
     </defs>
     <use xlink:href="#DejaVuSans-50"/>
     <use x="56.677734" xlink:href="#DejaVuSans-6f"/>
     <use x="117.859375" xlink:href="#DejaVuSans-70"/>
     <use x="181.335938" xlink:href="#DejaVuSans-75"/>
     <use x="244.714844" xlink:href="#DejaVuSans-6c"/>
     <use x="272.498047" xlink:href="#DejaVuSans-61"/>
     <use x="333.777344" xlink:href="#DejaVuSans-74"/>
     <use x="372.986328" xlink:href="#DejaVuSans-69"/>
     <use x="400.769531" xlink:href="#DejaVuSans-6f"/>
     <use x="461.951172" xlink:href="#DejaVuSans-6e"/>
     <use x="525.330078" xlink:href="#DejaVuSans-27"/>
     <use x="552.820312" xlink:href="#DejaVuSans-73"/>
     <use x="604.919922" xlink:href="#DejaVuSans-20"/>
     <use x="636.707031" xlink:href="#DejaVuSans-61"/>
     <use x="697.986328" xlink:href="#DejaVuSans-76"/>
     <use x="757.166016" xlink:href="#DejaVuSans-65"/>
     <use x="818.689453" xlink:href="#DejaVuSans-72"/>
     <use x="859.802734" xlink:href="#DejaVuSans-61"/>
     <use x="921.082031" xlink:href="#DejaVuSans-67"/>
     <use x="984.558594" xlink:href="#DejaVuSans-65"/>
     <use x="1046.082031" xlink:href="#DejaVuSans-20"/>
     <use x="1077.869141" xlink:href="#DejaVuSans-61"/>
     <use x="1139.148438" xlink:href="#DejaVuSans-6e"/>
     <use x="1202.527344" xlink:href="#DejaVuSans-64"/>
     <use x="1266.003906" xlink:href="#DejaVuSans-20"/>
     <use x="1297.791016" xlink:href="#DejaVuSans-62"/>
     <use x="1361.267578" xlink:href="#DejaVuSans-65"/>
     <use x="1422.791016" xlink:href="#DejaVuSans-73"/>
     <use x="1474.890625" xlink:href="#DejaVuSans-74"/>
     <use x="1514.099609" xlink:href="#DejaVuSans-20"/>
     <use x="1545.886719" xlink:href="#DejaVuSans-66"/>
     <use x="1581.091797" xlink:href="#DejaVuSans-69"/>
     <use x="1608.875" xlink:href="#DejaVuSans-74"/>
     <use x="1648.083984" xlink:href="#DejaVuSans-6e"/>
     <use x="1711.462891" xlink:href="#DejaVuSans-65"/>
     <use x="1772.986328" xlink:href="#DejaVuSans-73"/>
     <use x="1825.085938" xlink:href="#DejaVuSans-73"/>
    </g>
   </g>
   <g id="legend_1">
    <g id="patch_7">
     <path d="M 334.779375 302.584 
L 407.72 302.584 
Q 409.72 302.584 409.72 300.584 
L 409.72 257.549625 
Q 409.72 255.549625 407.72 255.549625 
L 334.779375 255.549625 
Q 332.779375 255.549625 332.779375 257.549625 
L 332.779375 300.584 
Q 332.779375 302.584 334.779375 302.584 
z
" style="fill:#ffffff;opacity:0.8;stroke:#cccccc;stroke-linejoin:miter;"/>
    </g>
    <g id="line2d_26">
     <path d="M 336.779375 263.648062 
L 356.779375 263.648062 
" style="fill:none;stroke:#0000ff;stroke-linecap:square;stroke-width:1.5;"/>
    </g>
    <g id="line2d_27"/>
    <g id="text_15">
     <!-- average -->
     <g transform="translate(364.779375 267.148062)scale(0.1 -0.1)">
      <use xlink:href="#DejaVuSans-61"/>
      <use x="61.279297" xlink:href="#DejaVuSans-76"/>
      <use x="120.458984" xlink:href="#DejaVuSans-65"/>
      <use x="181.982422" xlink:href="#DejaVuSans-72"/>
      <use x="223.095703" xlink:href="#DejaVuSans-61"/>
      <use x="284.375" xlink:href="#DejaVuSans-67"/>
      <use x="347.851562" xlink:href="#DejaVuSans-65"/>
     </g>
    </g>
    <g id="line2d_28">
     <path d="M 336.779375 278.326188 
L 356.779375 278.326188 
" style="fill:none;stroke:#008000;stroke-dasharray:9.6,2.4,1.5,2.4;stroke-dashoffset:0;stroke-width:1.5;"/>
    </g>
    <g id="line2d_29"/>
    <g id="text_16">
     <!-- +1 sd -->
     <g transform="translate(364.779375 281.826188)scale(0.1 -0.1)">
      <defs>
       <path d="M 2944 4013 
L 2944 2272 
L 4684 2272 
L 4684 1741 
L 2944 1741 
L 2944 0 
L 2419 0 
L 2419 1741 
L 678 1741 
L 678 2272 
L 2419 2272 
L 2419 4013 
L 2944 4013 
z
" id="DejaVuSans-2b" transform="scale(0.015625)"/>
      </defs>
      <use xlink:href="#DejaVuSans-2b"/>
      <use x="83.789062" xlink:href="#DejaVuSans-31"/>
      <use x="147.412109" xlink:href="#DejaVuSans-20"/>
      <use x="179.199219" xlink:href="#DejaVuSans-73"/>
      <use x="231.298828" xlink:href="#DejaVuSans-64"/>
     </g>
    </g>
    <g id="line2d_30">
     <path d="M 336.779375 293.004312 
L 356.779375 293.004312 
" style="fill:none;stroke:#ff0000;stroke-linecap:square;stroke-width:1.5;"/>
    </g>
    <g id="line2d_31"/>
    <g id="text_17">
     <!-- best -->
     <g transform="translate(364.779375 296.504312)scale(0.1 -0.1)">
      <use xlink:href="#DejaVuSans-62"/>
      <use x="63.476562" xlink:href="#DejaVuSans-65"/>
      <use x="125" xlink:href="#DejaVuSans-73"/>
      <use x="177.099609" xlink:href="#DejaVuSans-74"/>
     </g>
    </g>
   </g>
  </g>
 </g>
 <defs>
  <clipPath id="p1e991c1a55">
   <rect height="266.112" width="357.12" x="57.6" y="41.472"/>
  </clipPath>
 </defs>
</svg>
